<svg width="59" height="59" viewBox="0 0 59 59" fill="none" xmlns="http://www.w3.org/2000/svg">
<path d="M19.667 54.28C19.667 56.8868 17.5538 59 14.947 59H4.72C2.11322 59 0 56.8868 0 54.28V44.053C0 41.4462 2.11322 39.333 4.72 39.333H19.667V54.28ZM59 54.28C59 56.8868 56.8868 59 54.28 59H44.053C41.4462 59 39.333 56.8868 39.333 54.28V39.333H54.28C56.8868 39.333 59 41.4462 59 44.053V54.28ZM39.333 39.333H19.667V19.667H39.333V39.333ZM19.667 19.667H4.72C2.11322 19.667 0 17.5538 0 14.947V4.72C0 2.11322 2.11322 0 4.72 0H14.947C17.5538 0 19.667 2.11322 19.667 4.72V19.667ZM59 14.947C59 17.5538 56.8868 19.667 54.28 19.667H39.333V4.72C39.333 2.11322 41.4462 0 44.053 0H54.28C56.8868 0 59 2.11322 59 4.72V14.947Z" fill="#00FBFF"/>
</svg>
