<svg width="466" height="75" viewBox="0 0 466 75" fill="none" xmlns="http://www.w3.org/2000/svg">
<path d="M291.001 74.9385H349.201V16.7383H291.001V74.9385ZM0.000976562 74.9385H58.2012V16.7383H0.000976562V74.9385ZM349.202 -41.4619H407.401V16.7373H465.602V-41.4629H407.402V-99.6621H349.202V-41.4619ZM232.802 16.7373H291.002V-41.4629H232.802V16.7373ZM174.601 -41.4629H58.2021V16.7373H174.602V-41.4619H232.801V-99.6621H174.601V-41.4629ZM407.401 -99.6631H465.602V-157.863H407.401V-99.6631ZM232.802 -99.6631H349.201V-157.863H291.002V-216.062H232.802V-99.6631ZM116.401 -99.6631H174.602V-157.863H116.401V-99.6631Z" fill="#E6EAFF"/>
</svg>
