<svg width="376" height="101" viewBox="0 0 376 101" fill="none" xmlns="http://www.w3.org/2000/svg">
<path d="M291.001 290H233V348.2H291.2V291.001H349.201V232.801H291.001V290ZM0.000976562 291.001H58.2012V232.801H0.000976562V291.001ZM349.202 174.601H407.401V232.8H465.602V174.6H407.402V116.4H349.202V174.601ZM232.802 232.8H291.002V174.6H232.802V232.8ZM174.601 174.6H58.2021V232.8H174.602V174.601H232.801V116.4H174.601V174.6ZM407.401 116.399H465.602V58.1992H407.401V116.399ZM232.802 116.399H349.201V58.1992H291.002V0H232.802V116.399ZM116.401 116.399H174.602V58.1992H116.401V116.399Z" fill="#002DF8"/>
</svg>
