<svg width="199" height="214" viewBox="0 0 199 214" fill="none" xmlns="http://www.w3.org/2000/svg">
<path d="M-92.3994 252.001H-150.6V193.801H-92.3994V252.001ZM198.601 252.001H140.4V193.801H198.601V252.001ZM-150.601 135.601H-208.8V193.8H-267V135.6H-208.801V77.4004H-150.601V135.601ZM-34.2002 193.8H-92.4004V135.6H-34.2002V193.8ZM24.001 135.6H140.399V193.8H24V135.601H-34.1992V77.4004H24.001V135.6ZM-208.8 77.3994H-267V19.1992H-208.8V77.3994ZM-34.2002 77.3994H-150.6V19.1992H-92.4004V-39H-34.2002V77.3994ZM82.2002 77.3994H24V19.1992H82.2002V77.3994Z" fill="#6680FF"/>
</svg>
