<svg width="416" height="174" viewBox="0 0 416 174" fill="none" xmlns="http://www.w3.org/2000/svg">
<path fill-rule="evenodd" clip-rule="evenodd" d="M-85 45.4316H-39.5693V0H6.01855V45.5879H-39.4121V91.0195H-85V45.4316ZM51.2949 91.0186H96.8828V136.606H51.2949V91.0186ZM233.648 136.607H279.236V182.195H233.648V136.607ZM188.059 182.195H96.8838V136.607H188.06V182.194H233.647V227.783H188.06V273.372H142.472V227.783H188.059V182.195ZM5.8623 137.078H51.4502V182.666H5.8623V137.078ZM324.824 182.194H370.412V227.783H324.824V182.194ZM370.412 227.783H416V273.372H370.412V227.783ZM233.648 227.783H324.823V273.372H279.236V318.959H233.648V227.783Z" fill="#002DF8"/>
</svg>
