<svg width="217" height="214" viewBox="0 0 217 214" fill="none" xmlns="http://www.w3.org/2000/svg">
<path d="M291.001 239.938H349.201V181.738H291.001V239.938ZM0.000976562 239.938H58.2012V181.738H0.000976562V239.938ZM349.202 123.538H407.401V181.737H465.602V123.537H407.402V65.3379H349.202V123.538ZM232.802 181.737H291.002V123.537H232.802V181.737ZM174.601 123.537H58.2021V181.737H174.602V123.538H232.801V65.3379H174.601V123.537ZM407.401 65.3369H465.602V7.13672H407.401V65.3369ZM232.802 65.3369H349.201V7.13672H291.002V-51.0625H232.802V65.3369ZM116.401 65.3369H174.602V7.13672H116.401V65.3369Z" fill="#E6EAFF"/>
</svg>
