<svg width="172" height="214" viewBox="0 0 172 214" fill="none" xmlns="http://www.w3.org/2000/svg">
<path d="M174.601 272.854H116.4V214.654H174.601V272.854ZM465.601 272.854H407.4V214.654H465.601V272.854ZM116.399 156.454H58.2002V214.653H0V156.453H58.1992V98.2539H116.399V156.454ZM232.8 214.653H174.6V156.453H232.8V214.653ZM291.001 156.453H407.399V214.653H291V156.454H232.801V98.2539H291.001V156.453ZM58.2002 98.2529H0V40.0527H58.2002V98.2529ZM232.8 98.2529H116.4V40.0527H174.6V-18.1465H232.8V98.2529ZM349.2 98.2529H291V40.0527H349.2V98.2529Z" fill="#E6EAFF"/>
</svg>
