<svg width="32" height="32" viewBox="0 0 32 32" fill="none" xmlns="http://www.w3.org/2000/svg">
<path d="M11.6537 9.48777C11.3632 9.21707 10.979 9.06969 10.582 9.07669C10.1849 9.0837 9.80611 9.24454 9.52533 9.52533C9.24454 9.80611 9.0837 10.1849 9.07669 10.582C9.06969 10.979 9.21707 11.3632 9.48777 11.6537L13.5132 15.6792L9.48777 19.7046C9.3372 19.845 9.21643 20.0141 9.13267 20.2021C9.04891 20.3901 9.00387 20.5931 9.00024 20.7988C8.99661 21.0046 9.03446 21.209 9.11154 21.3998C9.18862 21.5907 9.30334 21.764 9.44887 21.9095C9.5944 22.0551 9.76774 22.1698 9.95857 22.2469C10.1494 22.3239 10.3538 22.3618 10.5596 22.3582C10.7653 22.3545 10.9683 22.3095 11.1563 22.2257C11.3443 22.142 11.5134 22.0212 11.6537 21.8706L15.6792 17.8452L19.7046 21.8706C19.9952 22.1413 20.3794 22.2887 20.7764 22.2817C21.1735 22.2747 21.5523 22.1139 21.8331 21.8331C22.1139 21.5523 22.2747 21.1735 22.2817 20.7764C22.2887 20.3794 22.1413 19.9952 21.8706 19.7046L17.8452 15.6792L21.8706 11.6537C22.0212 11.5134 22.142 11.3443 22.2257 11.1563C22.3095 10.9683 22.3545 10.7653 22.3582 10.5596C22.3618 10.3538 22.3239 10.1494 22.2469 9.95857C22.1698 9.76774 22.0551 9.5944 21.9095 9.44887C21.764 9.30334 21.5907 9.18862 21.3998 9.11154C21.209 9.03446 21.0046 8.99661 20.7988 9.00024C20.5931 9.00387 20.3901 9.04891 20.2021 9.13267C20.0141 9.21643 19.845 9.3372 19.7046 9.48777L15.6792 13.5132L11.6537 9.48777Z" fill="#111113"/>
</svg>
