<svg width="32" height="32" viewBox="0 0 32 32" fill="none" xmlns="http://www.w3.org/2000/svg">
<path d="M24.5199 11.8359C24.6759 11.6905 24.8011 11.5152 24.8879 11.3203C24.9747 11.1255 25.0214 10.9152 25.0251 10.7019C25.0289 10.4887 24.9897 10.2769 24.9098 10.0791C24.8299 9.88134 24.711 9.70169 24.5602 9.55088C24.4094 9.40006 24.2297 9.28117 24.032 9.20129C23.8342 9.12141 23.6224 9.08218 23.4091 9.08594C23.1959 9.0897 22.9856 9.13638 22.7908 9.22319C22.5959 9.30999 22.4206 9.43515 22.2752 9.59119L12.8093 19.0571L9.69636 15.9441C9.39528 15.6636 8.99707 15.5109 8.58561 15.5181C8.17415 15.5254 7.78157 15.6921 7.49057 15.9831C7.19958 16.274 7.0329 16.6666 7.02564 17.0781C7.01838 17.4896 7.17111 17.8878 7.45166 18.1888L11.687 22.4241C11.9847 22.7216 12.3884 22.8886 12.8093 22.8886C13.2302 22.8886 13.6339 22.7216 13.9317 22.4241L24.5199 11.8359Z" fill="#111113"/>
</svg>
