<svg width="32" height="32" viewBox="0 0 32 32" fill="none" xmlns="http://www.w3.org/2000/svg">
<path d="M24.5199 11.8357C24.6759 11.6903 24.8011 11.5149 24.8879 11.3201C24.9747 11.1253 25.0214 10.915 25.0251 10.7017C25.0289 10.4884 24.9897 10.2766 24.9098 10.0789C24.8299 9.8811 24.711 9.70145 24.5602 9.55063C24.4094 9.39982 24.2297 9.28092 24.032 9.20104C23.8342 9.12116 23.6224 9.08193 23.4091 9.0857C23.1959 9.08946 22.9856 9.13614 22.7908 9.22294C22.5959 9.30975 22.4206 9.43491 22.2752 9.59095L12.8093 19.0568L9.69636 15.9439C9.39528 15.6633 8.99707 15.5106 8.58561 15.5179C8.17415 15.5251 7.78157 15.6918 7.49057 15.9828C7.19958 16.2738 7.0329 16.6664 7.02564 17.0778C7.01838 17.4893 7.17111 17.8875 7.45166 18.1886L11.687 22.4239C11.9847 22.7213 12.3884 22.8884 12.8093 22.8884C13.2302 22.8884 13.6339 22.7213 13.9317 22.4239L24.5199 11.8357Z" fill="#FAFAFA"/>
</svg>
